HIERARCHY
ROOT Hips
{
	OFFSET 0.058547 100.481255 -0.522458
	CHANNELS 6 Xposition Yposition Zposition Xrotation Yrotation Zrotation 
	JOINT Spine
	{
		OFFSET -0.279214 12.230705 -2.892139
		CHANNELS 3 Xrotation Yrotation Zrotation
		JOINT Spine1
		{
			OFFSET -0.232678 10.192256 -1.242257
			CHANNELS 3 Xrotation Yrotation Zrotation
			JOINT Spine1_split
			{
				OFFSET -0.232678 10.192256 -1.242257
				CHANNELS 3 Xrotation Yrotation Zrotation
				JOINT Spine2
				{
					OFFSET -0.232678 10.192256 -1.242257
					CHANNELS 3 Xrotation Yrotation Zrotation
					JOINT Neck
					{
						OFFSET -0.418821 17.814224 8.416937
						CHANNELS 3 Xrotation Yrotation Zrotation
						JOINT Head
						{
							OFFSET 0.000000 7.031097 3.806764
							CHANNELS 3 Xrotation Yrotation Zrotation
							JOINT HeadTop_End
							{
								OFFSET 0.000000 24.646591 12.978601
								CHANNELS 3 Xrotation Yrotation Zrotation
								End Site
								{
									OFFSET 0.000000 0.000000 0.000000
								}
							}
						}
					}
					JOINT LeftShoulder
					{
						OFFSET 8.476512 7.247673 -3.868757
						CHANNELS 3 Xrotation Yrotation Zrotation
						JOINT LeftShoulder_split
						{
							OFFSET 8.476512 7.247673 -3.868757
							CHANNELS 3 Xrotation Yrotation Zrotation
							JOINT LeftArm
							{
								OFFSET 9.308996 -2.777740 0.208551
								CHANNELS 3 Xrotation Yrotation Zrotation
								JOINT LeftForeArm
								{
									OFFSET 29.972336 0.000015 0.000022
									CHANNELS 3 Xrotation Yrotation Zrotation
									JOINT LeftHand
									{
										OFFSET 26.026470 0.000015 0.000033
										CHANNELS 3 Xrotation Yrotation Zrotation
										JOINT LeftHandThumb1
										{
											OFFSET 12.240555 -7.117950 9.230400
											CHANNELS 3 Xrotation Yrotation Zrotation
											JOINT LeftHandThumb2
											{
												OFFSET 4.138626 -2.389450 2.389374
												CHANNELS 3 Xrotation Yrotation Zrotation
												JOINT LeftHandThumb3
												{
													OFFSET 2.726952 -1.574417 1.574393
													CHANNELS 3 Xrotation Yrotation Zrotation
													JOINT LeftHandThumb4
													{
														OFFSET 3.940979 -2.275375 2.275301
														CHANNELS 3 Xrotation Yrotation Zrotation
														End Site
														{
															OFFSET 0.000000 0.000000 0.000000
														}
													}
												}
											}
										}
										JOINT LeftHandIndex1
										{
											OFFSET 24.424660 -1.966187 5.959913
											CHANNELS 3 Xrotation Yrotation Zrotation
											JOINT LeftHandIndex2
											{
												OFFSET 6.426682 0.000015 0.000035
												CHANNELS 3 Xrotation Yrotation Zrotation
												JOINT LeftHandIndex3
												{
													OFFSET 5.337883 -0.000031 0.000035
													CHANNELS 3 Xrotation Yrotation Zrotation
													JOINT LeftHandIndex4
													{
														OFFSET 4.409393 -0.000015 0.000044
														CHANNELS 3 Xrotation Yrotation Zrotation
														End Site
														{
															OFFSET 0.000000 0.000000 0.000000
														}
													}
												}
											}
										}
										JOINT LeftHandMiddle1
										{
											OFFSET 23.810127 0.000000 0.000041
											CHANNELS 3 Xrotation Yrotation Zrotation
											JOINT LeftHandMiddle2
											{
												OFFSET 7.176491 -0.000015 0.000051
												CHANNELS 3 Xrotation Yrotation Zrotation
												JOINT LeftHandMiddle3
												{
													OFFSET 6.774864 -0.000015 0.000032
													CHANNELS 3 Xrotation Yrotation Zrotation
													JOINT LeftHandMiddle4
													{
														OFFSET 5.402740 -0.027710 -0.077597
														CHANNELS 3 Xrotation Yrotation Zrotation
														End Site
														{
															OFFSET 0.000000 0.000000 0.000000
														}
													}
												}
											}
										}
										JOINT LeftHandRing1
										{
											OFFSET 22.908371 -0.858917 -6.017762
											CHANNELS 3 Xrotation Yrotation Zrotation
											JOINT LeftHandRing2
											{
												OFFSET 6.337524 0.000000 -0.000050
												CHANNELS 3 Xrotation Yrotation Zrotation
												JOINT LeftHandRing3
												{
													OFFSET 5.779289 0.000000 -0.000029
													CHANNELS 3 Xrotation Yrotation Zrotation
													JOINT LeftHandRing4
													{
														OFFSET 4.965714 0.000031 -0.000057
														CHANNELS 3 Xrotation Yrotation Zrotation
														End Site
														{
															OFFSET 0.000000 0.000000 0.000000
														}
													}
												}
											}
										}
										JOINT LeftHandPinky1
										{
											OFFSET 20.036995 -1.565994 -10.945109
											CHANNELS 3 Xrotation Yrotation Zrotation
											JOINT LeftHandPinky2
											{
												OFFSET 5.254700 -0.000015 0.000002
												CHANNELS 3 Xrotation Yrotation Zrotation
												JOINT LeftHandPinky3
												{
													OFFSET 4.810226 -0.000015 -0.000019
													CHANNELS 3 Xrotation Yrotation Zrotation
													JOINT LeftHandPinky4
													{
														OFFSET 3.647247 0.000015 -0.000044
														CHANNELS 3 Xrotation Yrotation Zrotation
														End Site
														{
															OFFSET 0.000000 0.000000 0.000000
														}
													}
												}
											}
										}
									}
								}
							}
						}
					}
					JOINT RightShoulder
					{
						OFFSET -7.570480 7.247673 -3.868757
						CHANNELS 3 Xrotation Yrotation Zrotation
						JOINT RightShoulder_split
						{
							OFFSET -7.570480 7.247673 -3.868757
							CHANNELS 3 Xrotation Yrotation Zrotation
							JOINT RightArm
							{
								OFFSET -9.309000 -2.777725 0.208549
								CHANNELS 3 Xrotation Yrotation Zrotation
								JOINT RightForeArm
								{
									OFFSET -29.972336 0.000061 -0.000048
									CHANNELS 3 Xrotation Yrotation Zrotation
									JOINT RightHand
									{
										OFFSET -26.026474 0.000092 0.000017
										CHANNELS 3 Xrotation Yrotation Zrotation
										JOINT RightHandThumb1
										{
											OFFSET -12.240570 -7.117905 9.230402
											CHANNELS 3 Xrotation Yrotation Zrotation
											JOINT RightHandThumb2
											{
												OFFSET -4.138580 -2.389465 2.389442
												CHANNELS 3 Xrotation Yrotation Zrotation
												JOINT RightHandThumb3
												{
													OFFSET -2.726990 -1.574402 1.574351
													CHANNELS 3 Xrotation Yrotation Zrotation
													JOINT RightHandThumb4
													{
														OFFSET -3.940971 -2.275345 2.275330
														CHANNELS 3 Xrotation Yrotation Zrotation
														End Site
														{
															OFFSET 0.000000 0.000000 0.000000
														}
													}
												}
											}
										}
										JOINT RightHandIndex1
										{
											OFFSET -24.424667 -1.966171 5.959853
											CHANNELS 3 Xrotation Yrotation Zrotation
											JOINT RightHandIndex2
											{
												OFFSET -6.426682 -0.000046 0.000010
												CHANNELS 3 Xrotation Yrotation Zrotation
												JOINT RightHandIndex3
												{
													OFFSET -5.337891 0.000015 0.000031
													CHANNELS 3 Xrotation Yrotation Zrotation
													JOINT RightHandIndex4
													{
														OFFSET -4.409386 0.000015 0.000044
														CHANNELS 3 Xrotation Yrotation Zrotation
														End Site
														{
															OFFSET 0.000000 0.000000 0.000000
														}
													}
												}
											}
										}
										JOINT RightHandMiddle1
										{
											OFFSET -23.810127 -0.000015 -0.000027
											CHANNELS 3 Xrotation Yrotation Zrotation
											JOINT RightHandMiddle2
											{
												OFFSET -7.176491 -0.000046 -0.000001
												CHANNELS 3 Xrotation Yrotation Zrotation
												JOINT RightHandMiddle3
												{
													OFFSET -6.774857 -0.000046 0.000038
													CHANNELS 3 Xrotation Yrotation Zrotation
													JOINT RightHandMiddle4
													{
														OFFSET -5.402740 -0.027740 -0.077594
														CHANNELS 3 Xrotation Yrotation Zrotation
														End Site
														{
															OFFSET 0.000000 0.000000 0.000000
														}
													}
												}
											}
										}
										JOINT RightHandRing1
										{
											OFFSET -22.908348 -0.858963 -6.017824
											CHANNELS 3 Xrotation Yrotation Zrotation
											JOINT RightHandRing2
											{
												OFFSET -6.337524 0.000046 -0.000019
												CHANNELS 3 Xrotation Yrotation Zrotation
												JOINT RightHandRing3
												{
													OFFSET -5.779289 0.000046 -0.000004
													CHANNELS 3 Xrotation Yrotation Zrotation
													JOINT RightHandRing4
													{
														OFFSET -4.965721 -0.000031 -0.000032
														CHANNELS 3 Xrotation Yrotation Zrotation
														End Site
														{
															OFFSET 0.000000 0.000000 0.000000
														}
													}
												}
											}
										}
										JOINT RightHandPinky1
										{
											OFFSET -20.036957 -1.566071 -10.945158
											CHANNELS 3 Xrotation Yrotation Zrotation
											JOINT RightHandPinky2
											{
												OFFSET -5.254700 0.000031 -0.000025
												CHANNELS 3 Xrotation Yrotation Zrotation
												JOINT RightHandPinky3
												{
													OFFSET -4.810226 -0.000015 -0.000048
													CHANNELS 3 Xrotation Yrotation Zrotation
													JOINT RightHandPinky4
													{
														OFFSET -3.647247 -0.000031 -0.000029
														CHANNELS 3 Xrotation Yrotation Zrotation
														End Site
														{
															OFFSET 0.000000 0.000000 0.000000
														}
													}
												}
											}
										}
									}
								}
							}
						}
					}
				}
			}
		}
	}
	JOINT LeftUpLeg
	{
		OFFSET 15.427091 -6.655090 0.678631
		CHANNELS 3 Xrotation Yrotation Zrotation
		JOINT LeftLeg
		{
			OFFSET 4.088469 -39.590321 13.023970
			CHANNELS 3 Xrotation Yrotation Zrotation
			JOINT LeftFoot
			{
				OFFSET -4.073973 -37.708702 -15.979749
				CHANNELS 3 Xrotation Yrotation Zrotation
				JOINT LeftToeBase
				{
					OFFSET 5.346369 -15.068922 20.645004
					CHANNELS 3 Xrotation Yrotation Zrotation
					JOINT LeftToe_End
					{
						OFFSET 2.754658 0.931270 11.300900
						CHANNELS 3 Xrotation Yrotation Zrotation
						End Site
						{
							OFFSET 0.000000 0.000000 0.000000
						}
					}
				}
			}
		}
	}
	JOINT RightUpLeg
	{
		OFFSET -15.569522 -6.655090 0.678631
		CHANNELS 3 Xrotation Yrotation Zrotation
		JOINT RightLeg
		{
			OFFSET -4.074467 -39.591820 13.023795
			CHANNELS 3 Xrotation Yrotation Zrotation
			JOINT RightFoot
			{
				OFFSET 4.088761 -37.707176 -15.979579
				CHANNELS 3 Xrotation Yrotation Zrotation
				JOINT RightToeBase
				{
					OFFSET -5.346370 -15.068919 20.645004
					CHANNELS 3 Xrotation Yrotation Zrotation
					JOINT RightToe_End
					{
						OFFSET -2.754656 0.931271 11.300900
						CHANNELS 3 Xrotation Yrotation Zrotation
						End Site
						{
							OFFSET 0.000000 0.000000 0.000000
						}
					}
				}
			}
		}
	}
}
MOTION
Frames: 6
Frame Time: 0.016667
-0.224824 93.301315 -0.799984 4.450235 16.260645 -2.485651 -9.023727 -9.846396 1.406209 4.636102 -1.592018 -0.303831 0.000000 0.000000 0.000000 4.616004 -1.618330 -0.429758 3.210325 -2.116575 2.121247 7.396630 -7.821496 0.693632 -0.000000 -0.000001 0.000000 1.305225 -1.808907 2.207003 0.000000 0.000000 0.000000 -18.945039 -38.994680 -54.911456 0.000057 -106.768315 0.000051 32.550291 -31.357190 31.561686 -1.608656 3.637676 6.200144 4.731202 17.340643 1.395719 -0.138054 6.266784 2.986291 0.000001 -0.000000 0.000002 0.027861 0.611509 -5.217329 0.027860 0.611509 -5.217305 0.006968 0.306074 -2.608568 0.000001 -0.000000 -0.000002 0.027763 0.610434 -5.201335 0.028029 0.612580 -5.233301 -0.028376 -0.516054 -2.314891 0.000000 -0.000000 -0.000001 0.027861 0.611509 -5.217328 0.027860 0.611509 -5.217304 0.006915 0.304921 -2.608565 0.000000 0.000000 0.000000 0.380021 4.652169 -4.736298 0.015604 -3.444656 -5.712823 0.006969 0.306072 -2.608580 -0.000001 0.000001 -0.000001 -0.063059 -9.130678 7.907608 0.000000 0.000000 0.000000 4.717487 -12.300220 43.922331 -0.000364 114.463896 0.000619 30.589224 -14.537110 29.843784 -1.903038 1.223948 -5.919314 5.644183 -19.608170 -0.905361 -0.761785 -5.343814 -2.667580 0.000002 0.000002 0.000000 0.106733 -1.199274 10.170798 0.106735 -1.199282 10.170777 0.026737 -0.601998 5.084842 -0.000001 0.000000 0.000001 0.106733 -1.199274 10.170798 0.106735 -1.199282 10.170777 -0.044092 0.217826 4.790861 0.000002 0.000000 -0.000001 0.106737 -1.199279 10.171692 0.106712 -1.199281 10.169880 0.026736 -0.601997 5.084841 -0.000001 -0.000001 0.000001 0.106733 -1.199274 10.170797 0.106734 -1.199282 10.170776 0.026738 -0.601997 5.084837 -0.000001 -0.000001 0.000002 -11.308396 9.516797 -4.319348 26.159987 9.375550 -0.329396 -17.519632 -2.336156 12.309941 -6.792007 0.000003 0.000003 -0.000000 0.000002 -0.000001 -11.332026 -8.174200 5.631293 25.488719 -0.896507 -7.627696 -14.533709 -0.099089 0.299814 -7.343348 0.000001 -0.000002 0.000001 -0.000001 0.000000 
-0.009821 93.241760 -0.685060 5.121122 17.969319 -4.127084 -9.779761 -10.502199 1.545505 5.009729 -1.598644 0.816571 0.000000 0.000000 0.000000 5.012416 -1.653339 0.675420 2.880192 -2.291888 1.783468 7.576901 -8.889891 -0.176366 0.000001 0.000000 0.000000 1.122200 -1.375025 2.869610 0.000000 0.000000 0.000000 -17.530830 -42.449182 -52.872204 0.000004 -106.695505 -0.000008 30.394455 -32.570047 30.572217 -1.608582 3.641163 6.199694 4.731202 17.340641 1.395717 -0.138056 6.266782 2.986289 -0.000001 -0.000002 0.000002 0.028781 0.621492 -5.302710 0.028820 0.621922 -5.306420 0.007209 0.311296 -2.653137 0.000000 -0.000000 -0.000000 0.028682 0.620417 -5.286728 0.028994 0.622994 -5.322412 -0.028775 -0.510802 -2.359444 -0.000000 -0.000000 -0.000002 0.028781 0.621492 -5.302708 0.028820 0.621922 -5.306423 0.007155 0.310144 -2.653136 0.000000 0.000000 0.000001 0.386984 4.661620 -4.822038 0.016657 -3.434246 -5.801847 0.007208 0.311296 -2.653126 -0.000000 0.000000 0.000001 -0.110409 -10.118202 8.367046 0.000000 0.000000 0.000000 3.772886 -15.337820 42.676234 -0.000433 113.374652 0.000682 29.690610 -16.032541 27.331154 -1.901062 0.085856 -6.092717 5.705381 -20.314658 -0.945230 -0.730698 -5.696117 -2.702710 -0.000000 0.000000 -0.000001 0.106734 -1.199274 10.170796 0.106734 -1.199283 10.170783 0.026737 -0.601998 5.084837 0.000002 -0.000000 0.000002 0.106735 -1.199274 10.170796 0.106734 -1.199283 10.170783 -0.044093 0.217823 4.790867 -0.000002 0.000002 -0.000003 0.106739 -1.199278 10.171698 0.106715 -1.199280 10.169879 0.026739 -0.601997 5.084835 0.000001 0.000000 -0.000001 0.106734 -1.199274 10.170796 0.106735 -1.199281 10.170782 0.026736 -0.601998 5.084836 -0.000001 0.000001 0.000001 -14.311538 9.524439 -3.060044 28.895662 7.103002 0.893621 -15.553300 -1.726343 10.000926 -9.758560 -0.000007 0.000000 -0.000001 -0.000000 -0.000000 -10.059744 -7.917582 5.884121 23.245709 -1.514996 -5.655918 -14.905746 -0.277018 0.559360 -5.986888 -0.000000 0.000000 -0.000000 0.000001 -0.000000 
0.260537 93.040039 -0.549010 5.836696 19.251628 -5.777180 -10.400048 -10.818819 1.910691 5.259093 -1.547638 1.776884 0.000000 0.000000 0.000000 5.282379 -1.631458 1.628381 2.552511 -2.484928 1.482320 7.859768 -10.020499 -1.000448 0.000001 -0.000000 0.000000 1.186081 -1.425574 3.558464 0.000000 0.000000 0.000000 -15.856894 -45.512050 -50.095654 0.000039 -106.733133 0.000057 31.154764 -32.154348 31.533194 -1.608613 3.643375 6.200347 4.731200 17.340641 1.395714 -0.138055 6.266782 2.986292 -0.000001 -0.000001 0.000001 0.029241 0.626438 -5.345069 0.029290 0.626955 -5.349469 0.007326 0.313819 -2.674668 -0.000000 -0.000000 -0.000000 0.029140 0.625364 -5.329073 0.029465 0.628025 -5.365460 -0.028967 -0.508265 -2.380976 -0.000000 0.000000 0.000001 0.029241 0.626438 -5.345067 0.029290 0.626955 -5.349470 0.007272 0.312666 -2.674670 0.000000 0.000000 -0.000001 0.390439 4.666300 -4.864547 0.017169 -3.429222 -5.844861 0.007325 0.313820 -2.674655 0.000000 -0.000000 -0.000001 -0.134169 -11.010194 8.907874 0.000000 0.000000 0.000000 2.617250 -18.183237 41.557613 -0.000470 112.018477 0.000703 28.477342 -17.863258 24.147881 -1.905418 -1.812444 -6.382006 5.902395 -22.607661 -1.070328 -0.631181 -6.839575 -2.815562 -0.000000 0.000000 0.000001 0.106730 -1.199273 10.170796 0.106733 -1.199283 10.170780 0.026739 -0.601998 5.084838 -0.000003 -0.000002 0.000001 0.106731 -1.199273 10.170796 0.106733 -1.199283 10.170780 -0.044090 0.217824 4.790863 0.000001 -0.000000 -0.000002 0.106736 -1.199276 10.171693 0.106714 -1.199280 10.169879 0.026739 -0.601998 5.084843 0.000002 0.000000 0.000001 0.106730 -1.199273 10.170795 0.106733 -1.199282 10.170783 0.026740 -0.601999 5.084838 0.000001 -0.000001 0.000001 -18.407951 8.907987 -1.129713 32.666845 4.044792 1.581405 -11.217158 -0.516629 5.381455 -15.768320 -0.000005 -0.000001 -0.000000 -0.000002 -0.000000 -9.176796 -7.826758 6.065317 21.626156 -2.204981 -3.504859 -15.328065 -0.396467 0.253708 -4.951779 -0.000002 0.000001 0.000000 -0.000000 -0.000000 
0.502378 92.707474 -0.388546 6.529184 20.057856 -7.431204 -10.814375 -10.806402 2.704573 5.330514 -1.459977 2.381428 0.000000 0.000000 0.000000 5.365314 -1.564759 2.234580 2.340009 -2.696116 1.292713 8.182996 -11.133920 -1.482074 -0.000000 0.000000 -0.000000 1.308542 -1.578318 4.233592 0.000000 0.000000 0.000000 -13.762310 -48.335859 -46.768546 0.000107 -106.845694 0.000107 33.053416 -31.019738 33.327717 -1.608671 3.644833 6.201277 4.731201 17.340641 1.395718 -0.138058 6.266780 2.986290 -0.000003 -0.000000 0.000001 0.029453 0.628710 -5.364493 0.029499 0.629184 -5.368559 0.007379 0.314938 -2.684194 0.000000 -0.000000 -0.000001 0.029353 0.627637 -5.348495 0.029675 0.630254 -5.384543 -0.029051 -0.507141 -2.390520 0.000000 0.000000 0.000003 0.029453 0.628710 -5.364491 0.029499 0.629184 -5.368561 0.007325 0.313785 -2.684199 0.000000 0.000000 -0.000002 0.392026 4.668452 -4.884054 0.017399 -3.426995 -5.863939 0.007379 0.314938 -2.684198 0.000000 -0.000000 -0.000002 -0.170225 -11.858350 9.602261 0.000000 0.000000 0.000000 1.235719 -20.681832 40.532962 -0.000468 110.325730 0.000706 27.315304 -19.118579 21.268832 -1.923195 -4.077890 -6.728112 6.166597 -25.719455 -1.229721 -0.499360 -8.391343 -2.965976 0.000001 0.000001 -0.000002 0.106733 -1.199274 10.170796 0.106731 -1.199283 10.170785 0.026737 -0.601997 5.084844 0.000002 -0.000000 0.000001 0.106733 -1.199274 10.170796 0.106731 -1.199283 10.170785 -0.044092 0.217824 4.790862 -0.000002 0.000003 -0.000003 0.106736 -1.199279 10.171694 0.106714 -1.199278 10.169879 0.026739 -0.601999 5.084848 0.000000 0.000001 0.000002 0.106733 -1.199274 10.170797 0.106735 -1.199282 10.170783 0.026735 -0.602001 5.084850 0.000000 0.000002 -0.000002 -22.042639 8.493385 -0.139189 36.143893 0.762102 2.298025 -8.452595 -0.645156 5.396582 -19.985859 0.000013 -0.000002 -0.000001 0.000001 0.000000 -8.502552 -8.110260 6.383529 20.509900 -2.854919 -1.379887 -15.901240 -0.396415 -0.608790 -4.052844 -0.000000 0.000000 0.000000 -0.000000 0.000000 
0.883161 91.986465 -0.248386 7.101805 20.342064 -9.131313 -11.004413 -10.482364 3.942491 5.256926 -1.349459 2.653541 0.000000 0.000000 0.000000 5.294054 -1.455278 2.516155 2.253748 -2.909106 1.138122 8.497758 -12.124539 -1.432163 0.000001 0.000000 0.000000 1.445382 -1.746808 4.834087 0.000000 0.000000 0.000000 -11.184378 -50.883755 -42.846309 -0.000002 -107.061255 0.000001 35.819766 -29.194961 35.714800 -1.608749 3.644650 6.202236 4.731201 17.340643 1.395715 -0.138056 6.266779 2.986290 -0.000000 0.000000 -0.000001 0.029222 0.626255 -5.343482 0.029250 0.626508 -5.345665 0.007314 0.313596 -2.672739 -0.000000 0.000000 0.000001 0.029121 0.625182 -5.327509 0.029423 0.627577 -5.361654 -0.028950 -0.508491 -2.379064 -0.000000 -0.000000 0.000000 0.029222 0.626255 -5.343482 0.029250 0.626508 -5.345665 0.007261 0.312443 -2.672739 -0.000000 0.000000 -0.000001 0.390309 4.666128 -4.862965 0.017123 -3.429668 -5.841061 0.007315 0.313596 -2.672739 0.000000 0.000000 -0.000002 -0.274815 -12.458068 9.862502 0.000000 0.000000 0.000000 -0.428147 -22.798652 39.519013 -0.000541 108.401099 0.000769 26.324234 -20.001616 18.989931 -1.960414 -6.663145 -7.125550 6.494974 -29.625553 -1.413007 -0.338947 -10.339242 -3.150547 0.000000 0.000000 0.000000 0.106730 -1.199276 10.170801 0.106736 -1.199284 10.170779 0.026737 -0.601998 5.084843 0.000002 0.000002 -0.000001 0.106730 -1.199276 10.170800 0.106736 -1.199285 10.170781 -0.044094 0.217825 4.790866 0.000002 -0.000001 -0.000000 0.106735 -1.199279 10.171697 0.106716 -1.199278 10.169878 0.026736 -0.602001 5.084845 -0.000001 -0.000001 0.000001 0.106730 -1.199276 10.170799 0.106738 -1.199282 10.170778 0.026735 -0.601999 5.084844 0.000001 0.000001 0.000002 -25.289143 8.516535 0.743211 40.227690 -0.705908 3.877048 -7.564934 -3.068595 5.941504 -23.523779 -0.000005 -0.000002 -0.000001 -0.000000 -0.000000 -8.134670 -8.918521 6.847750 20.378648 -3.027263 0.565682 -16.976922 -0.349934 -1.727262 -3.130353 0.000006 -0.000002 0.000000 -0.000001 -0.000000 
1.411608 91.162430 -0.066545 7.578336 20.075104 -10.639726 -11.153984 -9.785900 5.252583 5.060728 -1.211021 2.674030 0.000000 0.000000 0.000000 5.093361 -1.303896 2.553361 2.390877 -3.103345 1.062624 8.714751 -12.936237 -0.953815 0.000002 0.000000 -0.000000 1.515684 -1.791495 5.285206 0.000000 0.000000 0.000000 -8.066471 -53.130163 -38.339580 0.000008 -107.399937 0.000003 38.967097 -26.885240 38.309090 -1.608835 3.641988 6.202983 4.731202 17.340643 1.395718 -0.138053 6.266780 2.986289 -0.000001 0.000001 -0.000003 0.028423 0.617654 -5.269859 0.028412 0.617489 -5.268498 0.007107 0.309072 -2.634166 -0.000001 -0.000000 -0.000000 0.028326 0.616579 -5.253880 0.028582 0.618561 -5.284496 -0.028606 -0.513037 -2.340482 -0.000000 -0.000000 0.000000 0.028423 0.617654 -5.269860 0.028412 0.617489 -5.268501 0.007054 0.307920 -2.634161 -0.000000 -0.000000 -0.000001 0.384305 4.657986 -4.789067 0.016207 -3.438677 -5.763946 0.007106 0.309073 -2.634163 -0.000001 -0.000000 -0.000000 -0.382660 -12.825313 9.964994 0.000000 0.000000 0.000000 -2.175799 -24.559350 38.659342 -0.000576 106.301717 0.000814 25.564727 -20.638947 17.086101 -2.020398 -9.420746 -7.554223 6.870043 -34.099426 -1.599494 -0.161789 -12.570359 -3.356618 0.000000 -0.000000 0.000001 0.106734 -1.199274 10.170796 0.106737 -1.199283 10.170777 0.026741 -0.601999 5.084843 0.000001 -0.000001 0.000003 0.106734 -1.199274 10.170795 0.106737 -1.199283 10.170777 -0.044092 0.217823 4.790866 -0.000003 -0.000003 0.000004 0.106735 -1.199279 10.171694 0.106716 -1.199282 10.169884 0.026739 -0.601999 5.084844 0.000001 0.000001 -0.000001 0.106734 -1.199274 10.170796 0.106739 -1.199283 10.170780 0.026737 -0.601999 5.084843 0.000003 0.000001 0.000001 -28.666454 8.940606 2.004767 44.637711 -2.301383 5.651521 -6.597540 -5.368214 6.085580 -28.092930 0.000002 -0.000002 -0.000001 -0.000000 -0.000000 -7.858478 -10.155949 7.288820 20.572953 -2.430649 2.175604 -18.153649 -0.235044 -2.857554 -2.227050 0.000001 0.000000 0.000000 -0.000000 0.000000 
